<svg version="1.0" xmlns="http://www.w3.org/2000/svg" width="346.667" height="346.667" viewBox="0 0 260 260"><path d="M0 130v130h260V0H0v130zm91-47.5c8.4 14.8 15.5 27.3 15.9 27.7.3.4 3.2-.2 6.5-1.3 3.2-1.1 8.7-2.3 12.2-2.6l6.4-.6V54h33.1c27 0 34.3.3 39.3 1.6C229.9 62.2 248 85.5 248 112c0 31-23.2 55.4-55.4 58.2-2.7.3-3 .8-4.7 7.6-2.7 10.5-7.3 18.6-15.5 26.8-22.5 22.7-58 22.7-80.9 0C75.9 189.1 70.4 167 77 145.8c2.2-7.3 10.3-20.2 15.1-24.2l3-2.6-9.6-17.2c-5.4-9.5-10-17.7-10.5-18.1-.6-.7-38.8 63.9-40.6 68.8-.5 1.3.8 1.5 8.5 1.5H52v15H17v-6.5c0-7.9-2.3-3.3 28.1-57.3C76 50.4 74.1 53.7 75 54.7c.4.4 7.7 12.9 16 27.8zM80.2 107c2.4 2.5 2.9 3.6 2.4 5.8-1.4 5.9-8 8.1-12.3 4-4.8-4.5-1.4-12.4 5.5-12.7.8-.1 2.7 1.3 4.4 2.9z"/><path d="M146.7 68.7c-.4.3-.7 9.2-.7 19.6 0 18.2.1 18.9 2 19.4 4.9 1.3 15.9 7.4 21.1 11.6 3.1 2.5 7.7 7.6 10.3 11.4 4.3 6.3 9.5 18.6 9.6 22.5 0 2.5.9 2.7 7.5 1.7 23.4-3.7 40.2-26.5 36.5-49.5-1.4-8.5-7-19.2-13-24.8-6-5.6-15.5-10.3-23.6-11.6-6.6-1.1-48.7-1.4-49.7-.3zm-28 52.9l-4.7 1.5 2.4 4.2c1.3 2.3 4.9 8.7 8.1 14.2 3.1 5.5 6.1 10.4 6.6 11 .5.5.9-5.6.9-15.8V120l-4.2.1c-2.4 0-6.4.7-9.1 1.5zm27.5 17.1l.3 16.8 14.4.3 14.4.3-.7-3.3c-2-10-12.4-23.1-22.4-28.2-2.8-1.4-5.4-2.6-5.7-2.6-.3 0-.4 7.5-.3 16.7z"/><path d="M98.6 135.1c-9.6 11.4-13 27.1-8.7 40.8 2.6 8.4 6 13.7 12.5 19.9 17.5 16.6 44.2 15.8 61-1.8 5.8-6.1 10.3-14.2 11.3-20.5l.6-3.5H96.9l.3-7.3.3-7.2 8.8-.3c4.9-.1 8.7-.6 8.5-1-1.3-3.2-12.4-22.2-13-22.2-.3 0-1.8 1.4-3.2 3.1z"/></svg>